<svg width="310" height="287" viewBox="0 0 310 287" fill="none" xmlns="http://www.w3.org/2000/svg">
<path d="M140.242 5.31057C148.487 -1.7702 160.666 -1.77017 168.91 5.31057L197.632 29.9805C201.447 33.2578 206.271 35.1276 211.299 35.2803L249.966 36.4551C261.544 36.8069 270.866 46.0763 271.283 57.6524L272.442 89.8047C272.646 95.4364 275.003 100.775 279.026 104.721L302.555 127.79C311.352 136.415 311.352 150.583 302.555 159.208L279.026 182.277C275.003 186.223 272.646 191.562 272.442 197.193L271.283 229.346C270.866 240.922 261.544 250.191 249.966 250.543L211.299 251.718C206.271 251.87 201.448 253.741 197.632 257.019L168.91 281.688C160.666 288.768 148.487 288.768 140.242 281.688L111.521 257.019C107.705 253.741 102.881 251.87 97.8535 251.718L59.1875 250.543C47.6092 250.191 38.2865 240.922 37.8692 229.346L36.71 197.193C36.5069 191.562 34.1499 186.223 30.126 182.277L6.59769 159.208C-2.19922 150.583 -2.19923 136.415 6.59769 127.79L30.126 104.721C34.1499 100.775 36.5069 95.4364 36.71 89.8047L37.8692 57.6524C38.2865 46.0762 47.6092 36.8066 59.1875 36.4551L97.8535 35.2803C102.881 35.1277 107.705 33.2577 111.521 29.9805L140.242 5.31057ZM154.576 65.999C107.632 65.9991 69.5762 100.697 69.5762 143.499C69.5762 186.301 107.632 220.999 154.576 220.999C201.52 220.999 239.576 186.301 239.576 143.499C239.576 100.697 201.52 65.999 154.576 65.999Z" fill="black"/>
</svg>
