<svg width="305" height="285" viewBox="0 0 305 285" fill="none" xmlns="http://www.w3.org/2000/svg">
<mask id="path-1-outside-1_1_8" maskUnits="userSpaceOnUse" x="0" y="0" width="305" height="285" fill="black">
<rect fill="white" width="305" height="285"/>
<path d="M136.37 8.97439C145.065 -0.324795 159.813 -0.324795 168.508 8.97439L191.098 33.1326C195.625 37.9741 202.094 40.5169 208.706 40.0535L242.814 37.6619C256.268 36.7189 267.396 47.993 266.277 61.4334L264.027 88.4539C263.414 95.8155 266.538 102.993 272.341 107.563L294.489 125.004C305.674 133.812 305.674 150.764 294.489 159.572L272.341 177.012C266.538 181.583 263.414 188.76 264.027 196.122L266.277 223.142C267.396 236.583 256.268 247.857 242.814 246.914L208.706 244.522C202.094 244.059 195.625 246.602 191.098 251.443L168.508 275.602C159.813 284.901 145.065 284.901 136.37 275.602L113.78 251.443C109.253 246.602 102.784 244.059 96.1724 244.522L62.064 246.914C48.6102 247.857 37.4823 236.583 38.6011 223.142L40.8511 196.122C41.4639 188.76 38.3404 181.583 32.5366 177.012L10.3892 159.572C-0.796379 150.764 -0.796398 133.812 10.3892 125.004L32.5366 107.563C38.3404 102.993 41.4639 95.8155 40.8511 88.4539L38.6011 61.4334C37.4823 47.993 48.6102 36.7189 62.064 37.6619L96.1724 40.0535C102.784 40.5169 109.253 37.9741 113.78 33.1326L136.37 8.97439ZM152.439 64.7879C105.495 64.7879 67.439 99.4858 67.439 142.288C67.439 185.09 105.495 219.788 152.439 219.788C199.383 219.788 237.439 185.09 237.439 142.288C237.439 99.4858 199.383 64.7879 152.439 64.7879Z"/>
</mask>
<path d="M136.37 8.97439C145.065 -0.324795 159.813 -0.324795 168.508 8.97439L191.098 33.1326C195.625 37.9741 202.094 40.5169 208.706 40.0535L242.814 37.6619C256.268 36.7189 267.396 47.993 266.277 61.4334L264.027 88.4539C263.414 95.8155 266.538 102.993 272.341 107.563L294.489 125.004C305.674 133.812 305.674 150.764 294.489 159.572L272.341 177.012C266.538 181.583 263.414 188.76 264.027 196.122L266.277 223.142C267.396 236.583 256.268 247.857 242.814 246.914L208.706 244.522C202.094 244.059 195.625 246.602 191.098 251.443L168.508 275.602C159.813 284.901 145.065 284.901 136.37 275.602L113.78 251.443C109.253 246.602 102.784 244.059 96.1724 244.522L62.064 246.914C48.6102 247.857 37.4823 236.583 38.6011 223.142L40.8511 196.122C41.4639 188.76 38.3404 181.583 32.5366 177.012L10.3892 159.572C-0.796379 150.764 -0.796398 133.812 10.3892 125.004L32.5366 107.563C38.3404 102.993 41.4639 95.8155 40.8511 88.4539L38.6011 61.4334C37.4823 47.993 48.6102 36.7189 62.064 37.6619L96.1724 40.0535C102.784 40.5169 109.253 37.9741 113.78 33.1326L136.37 8.97439ZM152.439 64.7879C105.495 64.7879 67.439 99.4858 67.439 142.288C67.439 185.09 105.495 219.788 152.439 219.788C199.383 219.788 237.439 185.09 237.439 142.288C237.439 99.4858 199.383 64.7879 152.439 64.7879Z" fill="white"/>
<path d="M136.37 8.97439L137.83 10.3404L137.831 10.3404L136.37 8.97439ZM168.508 8.97439L167.047 10.3404L167.047 10.3404L168.508 8.97439ZM191.098 33.1326L192.559 31.7666L192.559 31.7666L191.098 33.1326ZM208.706 40.0535L208.845 42.0486L208.845 42.0486L208.706 40.0535ZM242.814 37.6619L242.674 35.6668H242.674L242.814 37.6619ZM266.277 61.4334L268.27 61.5993V61.5993L266.277 61.4334ZM264.027 88.4539L262.034 88.2879V88.288L264.027 88.4539ZM272.341 107.563L273.579 105.992L273.579 105.992L272.341 107.563ZM294.489 125.004L293.251 126.575V126.575L294.489 125.004ZM294.489 159.572L293.251 158.001V158.001L294.489 159.572ZM272.341 177.012L273.579 178.584L273.579 178.584L272.341 177.012ZM264.027 196.122L262.034 196.288V196.288L264.027 196.122ZM266.277 223.142L268.27 222.976V222.976L266.277 223.142ZM242.814 246.914L242.674 248.909L242.674 248.909L242.814 246.914ZM208.706 244.522L208.845 242.527H208.845L208.706 244.522ZM191.098 251.443L189.637 250.077H189.637L191.098 251.443ZM168.508 275.602L169.969 276.968L169.969 276.968L168.508 275.602ZM136.37 275.602L134.909 276.968L134.909 276.968L136.37 275.602ZM113.78 251.443L115.241 250.077L115.241 250.077L113.78 251.443ZM96.1724 244.522L96.0325 242.527H96.0325L96.1724 244.522ZM62.064 246.914L62.2038 248.909L62.2039 248.909L62.064 246.914ZM38.6011 223.142L36.608 222.976L36.608 222.976L38.6011 223.142ZM40.8511 196.122L42.8442 196.288L42.8442 196.288L40.8511 196.122ZM32.5366 177.012L31.2993 178.584L31.2993 178.584L32.5366 177.012ZM10.3892 159.572L9.15182 161.143H9.15182L10.3892 159.572ZM10.3892 125.004L11.6265 126.575H11.6265L10.3892 125.004ZM32.5366 107.563L31.2993 105.992L31.2993 105.992L32.5366 107.563ZM40.8511 88.4539L42.8442 88.288L42.8442 88.2879L40.8511 88.4539ZM38.6011 61.4334L36.608 61.5993L36.608 61.5993L38.6011 61.4334ZM62.064 37.6619L62.2039 35.6668L62.2038 35.6668L62.064 37.6619ZM96.1724 40.0535L96.0325 42.0486L96.0325 42.0486L96.1724 40.0535ZM113.78 33.1326L112.319 31.7666L112.319 31.7666L113.78 33.1326ZM152.439 64.7879V62.7879V62.7879V64.7879ZM67.439 142.288H65.439V142.288H67.439ZM152.439 219.788V221.788V221.788V219.788ZM237.439 142.288H239.439V142.288H237.439ZM136.37 8.97439L137.831 10.3404C145.735 1.88655 159.143 1.88655 167.047 10.3404L168.508 8.97439L169.969 7.60842C160.484 -2.53614 144.394 -2.53614 134.909 7.60842L136.37 8.97439ZM168.508 8.97439L167.047 10.3404L189.637 34.4986L191.098 33.1326L192.559 31.7666L169.969 7.60839L168.508 8.97439ZM191.098 33.1326L189.637 34.4986C194.576 39.7801 201.632 42.5542 208.845 42.0486L208.706 40.0535L208.566 38.0584C202.555 38.4797 196.675 36.168 192.559 31.7666L191.098 33.1326ZM208.706 40.0535L208.845 42.0486L242.954 39.657L242.814 37.6619L242.674 35.6668L208.566 38.0584L208.706 40.0535ZM242.814 37.6619L242.954 39.657C255.185 38.7997 265.301 49.049 264.284 61.2675L266.277 61.4334L268.27 61.5993C269.49 46.9371 257.351 34.638 242.674 35.6668L242.814 37.6619ZM266.277 61.4334L264.284 61.2674L262.034 88.2879L264.027 88.4539L266.02 88.6198L268.27 61.5993L266.277 61.4334ZM264.027 88.4539L262.034 88.288C261.365 96.319 264.773 104.149 271.104 109.135L272.341 107.563L273.579 105.992C268.302 101.837 265.463 95.312 266.02 88.6198L264.027 88.4539ZM272.341 107.563L271.104 109.135L293.251 126.575L294.489 125.004L295.726 123.432L273.579 105.992L272.341 107.563ZM294.489 125.004L293.251 126.575C303.42 134.582 303.42 149.993 293.251 158.001L294.489 159.572L295.726 161.143C307.929 151.534 307.929 133.041 295.726 123.432L294.489 125.004ZM294.489 159.572L293.251 158.001L271.104 175.441L272.341 177.012L273.579 178.584L295.726 161.143L294.489 159.572ZM272.341 177.012L271.104 175.441C264.773 180.427 261.365 188.257 262.034 196.288L264.027 196.122L266.02 195.956C265.463 189.264 268.302 182.739 273.579 178.584L272.341 177.012ZM264.027 196.122L262.034 196.288L264.284 223.308L266.277 223.142L268.27 222.976L266.02 195.956L264.027 196.122ZM266.277 223.142L264.284 223.308C265.301 235.527 255.185 245.776 242.954 244.919L242.814 246.914L242.674 248.909C257.351 249.938 269.49 237.639 268.27 222.976L266.277 223.142ZM242.814 246.914L242.954 244.919L208.845 242.527L208.706 244.522L208.566 246.517L242.674 248.909L242.814 246.914ZM208.706 244.522L208.845 242.527C201.632 242.022 194.576 244.796 189.637 250.077L191.098 251.443L192.559 252.809C196.675 248.408 202.555 246.096 208.566 246.517L208.706 244.522ZM191.098 251.443L189.637 250.077L167.047 274.236L168.508 275.602L169.969 276.968L192.559 252.809L191.098 251.443ZM168.508 275.602L167.047 274.236C159.143 282.69 145.735 282.69 137.83 274.236L136.37 275.602L134.909 276.968C144.394 287.112 160.484 287.112 169.969 276.968L168.508 275.602ZM136.37 275.602L137.831 274.236L115.241 250.077L113.78 251.443L112.319 252.809L134.909 276.968L136.37 275.602ZM113.78 251.443L115.241 250.077C110.302 244.796 103.246 242.022 96.0325 242.527L96.1724 244.522L96.3122 246.517C102.323 246.096 108.203 248.408 112.319 252.809L113.78 251.443ZM96.1724 244.522L96.0325 242.527L61.9241 244.919L62.064 246.914L62.2039 248.909L96.3123 246.517L96.1724 244.522ZM62.064 246.914L61.9241 244.919C49.6934 245.776 39.5771 235.527 40.5942 223.308L38.6011 223.142L36.608 222.976C35.3875 237.639 47.527 249.938 62.2038 248.909L62.064 246.914ZM38.6011 223.142L40.5942 223.308L42.8442 196.288L40.8511 196.122L38.858 195.956L36.608 222.976L38.6011 223.142ZM40.8511 196.122L42.8442 196.288C43.5127 188.257 40.1052 180.427 33.7739 175.441L32.5366 177.012L31.2993 178.584C36.5756 182.739 39.415 189.264 38.858 195.956L40.8511 196.122ZM32.5366 177.012L33.774 175.441L11.6265 158.001L10.3892 159.572L9.15182 161.143L31.2993 178.584L32.5366 177.012ZM10.3892 159.572L11.6265 158.001C1.45784 149.993 1.45782 134.582 11.6265 126.575L10.3892 125.004L9.15182 123.432C-3.05062 133.041 -3.05059 151.534 9.15182 161.143L10.3892 159.572ZM10.3892 125.004L11.6265 126.575L33.774 109.135L32.5366 107.563L31.2993 105.992L9.15182 123.432L10.3892 125.004ZM32.5366 107.563L33.7739 109.135C40.1052 104.149 43.5127 96.319 42.8442 88.288L40.8511 88.4539L38.858 88.6198C39.415 95.312 36.5756 101.837 31.2993 105.992L32.5366 107.563ZM40.8511 88.4539L42.8442 88.2879L40.5942 61.2674L38.6011 61.4334L36.608 61.5993L38.858 88.6198L40.8511 88.4539ZM38.6011 61.4334L40.5942 61.2675C39.5771 49.049 49.6934 38.7997 61.9241 39.657L62.064 37.6619L62.2038 35.6668C47.5269 34.638 35.3875 46.9371 36.608 61.5993L38.6011 61.4334ZM62.064 37.6619L61.9241 39.657L96.0325 42.0486L96.1724 40.0535L96.3123 38.0584L62.2039 35.6668L62.064 37.6619ZM96.1724 40.0535L96.0325 42.0486C103.246 42.5542 110.302 39.7801 115.241 34.4986L113.78 33.1326L112.319 31.7666C108.203 36.168 102.323 38.4797 96.3122 38.0584L96.1724 40.0535ZM113.78 33.1326L115.241 34.4986L137.83 10.3404L136.37 8.97439L134.909 7.60839L112.319 31.7666L113.78 33.1326ZM152.439 64.7879V62.7879C104.568 62.7879 65.439 98.2114 65.439 142.288H67.439H69.439C69.439 100.76 106.421 66.7879 152.439 66.7879V64.7879ZM67.439 142.288H65.439C65.439 186.364 104.568 221.788 152.439 221.788V219.788V217.788C106.421 217.788 69.439 183.815 69.439 142.288H67.439ZM152.439 219.788V221.788C200.31 221.788 239.439 186.364 239.439 142.288H237.439H235.439C235.439 183.816 198.456 217.788 152.439 217.788V219.788ZM237.439 142.288H239.439C239.439 98.2114 200.31 62.7879 152.439 62.7879V64.7879V66.7879C198.456 66.7879 235.439 100.76 235.439 142.288H237.439Z" fill="black" fill-opacity="0.82" mask="url(#path-1-outside-1_1_8)"/>
</svg>
